<?xml version="1.0" encoding="utf-8"?>
<!-- Generator: Adobe Illustrator 23.0.2, SVG Export Plug-In . SVG Version: 6.00 Build 0)  -->
<svg version="1.1" id="Layer_1" xmlns="http://www.w3.org/2000/svg" xmlns:xlink="http://www.w3.org/1999/xlink" x="0px" y="0px"
	 viewBox="0 0 695.2 702" style="enable-background:new 0 0 695.2 702;" xml:space="preserve">
<style type="text/css">
	.st0{fill:#E5E535;}
</style>
<g>
	<path class="st0" d="M310.3,96.3c0-12.8,10.4-23.1,23.1-23.1H503c12.8,0,23.1,10.4,23.1,23.1v84.8c0,12.8-10.4,23.1-23.1,23.1
		H402.8c-2.2,0-4.4,1-5.9,2.7L364.3,245v-33.1c0-4.3-3.5-7.7-7.7-7.7h-23.1c-12.8,0-23.1-10.4-23.1-23.1L310.3,96.3L310.3,96.3z
		 M294.9,181.1c0,21.3,17.3,38.5,38.5,38.5h15.4v46.3c0,4.3,3.5,7.7,7.7,7.7c2.2,0,4.4-1,5.9-2.7l43.9-51.3H503
		c21.3,0,38.5-17.3,38.5-38.5v-15.4V96.3c0-21.3-17.3-38.5-38.5-38.5H333.5c-21.3,0-38.5,17.3-38.5,38.5v69.4L294.9,181.1z"/>
	<path class="st0" d="M329.2,141.2l46.3,30.8c3.5,2.4,8.3,1.4,10.7-2.1c2.4-3.5,1.4-8.3-2.1-10.7l-35.2-23.5l34.4-17.1
		c3.8-1.9,5.4-6.5,3.5-10.3s-6.5-5.4-10.3-3.5l0,0L330,127.9c-3.8,1.9-5.4,6.5-3.5,10.3C327.2,139.5,328.1,140.5,329.2,141.2
		L329.2,141.2z"/>
	<path class="st0" d="M453.3,118.6l34.4,17.2l-35.2,23.5c-3.5,2.4-4.5,7.1-2.1,10.7c2.4,3.5,7.1,4.5,10.7,2.1l46.3-30.8
		c3.5-2.4,4.5-7.1,2.1-10.7c-0.7-1.1-1.8-2-3-2.6l-46.3-23.1c-3.8-1.9-8.4-0.4-10.3,3.5C448,112.1,449.5,116.7,453.3,118.6
		L453.3,118.6z"/>
	<path class="st0" d="M400.2,188.3c4,1.5,8.4-0.6,9.9-4.6l0,0l30.8-84.8c1.6-3.9-0.3-8.4-4.2-10c-3.9-1.6-8.4,0.3-10,4.2
		c-0.1,0.2-0.1,0.3-0.2,0.5l-30.8,84.8C394.1,182.4,396.2,186.8,400.2,188.3L400.2,188.3z"/>
</g>
<path class="st0" d="M291,569c-17.1,0-31,13.9-31,31s13.9,31,31,31s31-13.9,31-31S308.1,569,291,569z M291,616c-8.8,0-16-7.2-16-16
	s7.2-16,16-16s16,7.2,16,16S299.8,616,291,616z"/>
<path class="st0" d="M573,598c-17.1,0-31,13.9-31,31s13.9,31,31,31s31-13.9,31-31S590.1,598,573,598z M573,645c-8.8,0-16-7.2-16-16
	s7.2-16,16-16s16,7.2,16,16S581.8,645,573,645z"/>
<path class="st0" d="M345.5,402.5v-62c0-9.6-7.9-17.5-17.5-17.5h-54c-23.4,0-42.5,19.1-42.5,42.5v37c0,9.6,7.9,17.5,17.5,17.5h79
	C337.6,420,345.5,412.1,345.5,402.5z M246.5,365.5c0-15.2,12.3-27.5,27.5-27.5h54c1.4,0,2.5,1.1,2.5,2.5V373h-84V365.5z
	 M246.5,402.5V388h84v14.5c0,1.4-1.1,2.5-2.5,2.5h-79C247.6,405,246.5,403.9,246.5,402.5z"/>
<path class="st0" d="M434.5,474v15c0,4.1,3.4,7.5,7.5,7.5s7.5-3.4,7.5-7.5v-15c0-4.1-3.4-7.5-7.5-7.5S434.5,469.9,434.5,474z"/>
<path class="st0" d="M654.3,606.8c-1.3-8.4-5.2-14.8-17.3-14.8h-6.5v-13.5c0-9.6-7.9-17.5-17.5-17.5h-20.5V365.5
	c0-48.2-39.3-87.5-87.5-87.5H372.5c-4.1,0-7.5,3.4-7.5,7.5s3.4,7.5,7.5,7.5H505c40,0,72.5,32.5,72.5,72.5V592h-42v-12.5
	c0-8.8-6.5-16.1-15-17.3V536c0-4.1-3.4-7.5-7.5-7.5c-4.1,0-7.5,3.4-7.5,7.5v26h-86V416.6c3.5,2.1,7.6,3.4,12,3.4
	c6,0,11.4-2.3,15.5-6c4.1,3.7,9.5,6,15.5,6s11.4-2.3,15.5-6c4.1,3.7,9.5,6,15.5,6c4.4,0,8.5-1.2,12-3.4V501c0,4.1,3.4,7.5,7.5,7.5
	c4.1,0,7.5-3.4,7.5-7.5v-81.4c1.3,0.2,2.6,0.4,4,0.4c12.7,0,23-10.3,23-23v-28.5c0-1.2-0.3-2.5-0.9-3.6L530.9,335
	c-3.9-7.4-11.5-12-19.9-12h-96.9c-8.4,0-16,4.6-19.9,12l-15.7,29.9c-0.6,1.1-0.9,2.4-0.9,3.6V397c0,12.7,10.3,23,23,23
	c1.4,0,2.7-0.1,4-0.4v142.6c-8.5,1.2-15,8.5-15,17.3V592h-39c-3.9-29.3-29.1-52-59.5-52s-55.5,22.7-59.4,52h-30.1V365.5
	c0-40,32.5-72.5,72.5-72.5h63.5c4.1,0,7.5-3.4,7.5-7.5s-3.4-7.5-7.5-7.5H274c-48.2,0-87.5,39.3-87.5,87.5V402H179
	c-12.4,0-22.5,10.1-22.5,22.5V500c0,12.5,10.3,23,22.5,23h7.5v38H174c-9.6,0-17.5,7.9-17.5,17.5v11c0,9.6,7.9,17.5,17.5,17.5h57.4
	c3.5,29.8,28.9,53,59.6,53s56.1-23.2,59.6-53 M179,508c-4,0-7.5-3.7-7.5-8v-75.5c0-4.1,3.4-7.5,7.5-7.5h7.5v91H179z M171.5,589.5
	v-11c0-1.4,1.1-2.5,2.5-2.5h12.5v16H174C172.6,592,171.5,590.9,171.5,589.5z M431.5,405c-4.4,0-8-3.6-8-8v-21h16v21
	C439.5,401.4,435.9,405,431.5,405z M462.5,405c-4.4,0-8-3.6-8-8v-21h16v21C470.5,401.4,466.9,405,462.5,405z M493.5,405
	c-4.4,0-8-3.6-8-8v-21h16v21C501.5,401.4,497.9,405,493.5,405z M532.5,397c0,4.4-3.6,8-8,8s-8-3.6-8-8v-21h16V397z M527.6,361h-11.1
	v-20.5c0.4,0.5,0.8,1,1.1,1.5L527.6,361z M501.5,361h-16v-23h16V361z M470.5,361h-16v-23h16V361z M439.5,338v23h-16v-23H439.5z
	 M407.4,342c0.3-0.6,0.7-1.1,1.1-1.5V361h-11.1L407.4,342z M392.5,397v-21h16v21c0,4.4-3.6,8-8,8S392.5,401.4,392.5,397z M291,645
	c-24.8,0-45-20.2-45-45s20.2-45,45-45s45,20.2,45,45S315.8,645,291,645z M442.5,607h40 M404.5,592v-12.5c0-1.4,1.1-2.5,2.5-2.5h111
	c1.4,0,2.5,1.1,2.5,2.5V592H404.5z M592.5,592v-16H613c1.4,0,2.5,1.1,2.5,2.5V592H592.5z"/>
<path class="st0" d="M298.5,475h-45c-4.1,0-7.5,3.4-7.5,7.5s3.4,7.5,7.5,7.5h45c4.1,0,7.5-3.4,7.5-7.5S302.6,475,298.5,475z"/>
<path class="st0" d="M298.5,505h-45c-4.1,0-7.5,3.4-7.5,7.5c0,4.1,3.4,7.5,7.5,7.5h45c4.1,0,7.5-3.4,7.5-7.5S302.6,505,298.5,505z"
	/>
<g>
	<path class="st0" d="M134.4,482.8l-58,1c-4.1,0-7.5,3.4-7.5,7.5s3.4,7.5,7.5,7.5l58-1c4.1,0,7.5-3.4,7.5-7.5
		S138.5,482.8,134.4,482.8z"/>
	<path class="st0" d="M134.4,512l-76,1c-4.1,0-7.5,3.4-7.5,7.5s3.4,7.5,7.5,7.5l76-1c4.1,0,7.5-3.4,7.5-7.5S138.5,512,134.4,512z"/>
	<path class="st0" d="M134.4,541.3l-43,1c-4.1,0-7.5,3.4-7.5,7.5s3.4,7.5,7.5,7.5l43-1c4.1,0,7.5-3.4,7.5-7.5
		S138.5,541.3,134.4,541.3z"/>
</g>
</svg>
