<?xml version="1.0" encoding="utf-8"?>
<!-- Generator: Adobe Illustrator 23.0.2, SVG Export Plug-In . SVG Version: 6.00 Build 0)  -->
<svg version="1.1" id="Layer_1" xmlns="http://www.w3.org/2000/svg" xmlns:xlink="http://www.w3.org/1999/xlink" x="0px" y="0px"
	 viewBox="0 0 338.1 352.3" style="enable-background:new 0 0 338.1 352.3;" xml:space="preserve">
<style type="text/css">
	.st0{fill:#E5E535;}
	.st1{fill:#36383B;}
	.st2{fill:#FFFFFF;}
</style>
<g>
	<rect x="108.2" y="81.2" class="st0" width="121.7" height="121.7"/>
	<g>
		<g>
			<g>
				<path class="st1" d="M147.6,125.4h-13.3c-2.2,0-3.9-1.8-3.9-3.9c0-2.2,1.8-3.9,3.9-3.9h13.3c2.2,0,3.9,1.8,3.9,3.9
					C151.6,123.7,149.8,125.4,147.6,125.4z"/>
			</g>
			<g>
				<path class="st1" d="M186.9,125.4H161c-2.2,0-3.9-1.8-3.9-3.9c0-2.2,1.8-3.9,3.9-3.9h25.8c2.2,0,3.9,1.8,3.9,3.9
					C190.8,123.7,189,125.4,186.9,125.4z"/>
			</g>
		</g>
		<g>
			<g>
				<path class="st1" d="M177.2,139.1h-0.5c-2.2,0-3.9-1.8-3.9-3.9s1.8-3.9,3.9-3.9h0.5c2.2,0,3.9,1.8,3.9,3.9
					S179.4,139.1,177.2,139.1z"/>
			</g>
			<g>
				<path class="st1" d="M163.3,139.1h-28.9c-2.2,0-3.9-1.8-3.9-3.9s1.8-3.9,3.9-3.9h28.9c2.2,0,3.9,1.8,3.9,3.9
					S165.5,139.1,163.3,139.1z"/>
			</g>
		</g>
		<g>
			<g>
				<path class="st1" d="M139.8,152.8h-5.4c-2.2,0-3.9-1.8-3.9-3.9s1.8-3.9,3.9-3.9h5.4c2.2,0,3.9,1.8,3.9,3.9
					S142,152.8,139.8,152.8z"/>
			</g>
			<g>
				<path class="st1" d="M193.9,152.8h-40.7c-2.2,0-3.9-1.8-3.9-3.9s1.8-3.9,3.9-3.9h40.7c2.2,0,3.9,1.8,3.9,3.9
					S196,152.8,193.9,152.8z"/>
			</g>
		</g>
		<g>
			<g>
				<path class="st1" d="M207.8,166.4h-73.4c-2.2,0-3.9-1.8-3.9-3.9s1.8-3.9,3.9-3.9h73.4c2.2,0,3.9,1.8,3.9,3.9
					S209.9,166.4,207.8,166.4z"/>
			</g>
		</g>
		<g>
			<g>
				<path class="st1" d="M195.6,180.1h-22.8c-2.2,0-3.9-1.8-3.9-3.9c0-2.2,1.8-3.9,3.9-3.9h22.8c2.2,0,3.9,1.8,3.9,3.9
					C199.5,178.3,197.8,180.1,195.6,180.1z"/>
			</g>
			<g>
				<path class="st1" d="M159.4,180.1h-25c-2.2,0-3.9-1.8-3.9-3.9c0-2.2,1.8-3.9,3.9-3.9h25c2.2,0,3.9,1.8,3.9,3.9
					C163.3,178.3,161.5,180.1,159.4,180.1z"/>
			</g>
		</g>
		<g>
			<g>
				<path class="st1" d="M174.8,111.8h-9.9c-2.2,0-3.9-1.8-3.9-3.9c0-2.2,1.8-3.9,3.9-3.9h9.9c2.2,0,3.9,1.8,3.9,3.9
					C178.8,110,177,111.8,174.8,111.8z"/>
			</g>
			<g>
				<path class="st1" d="M151.6,111.8h-17.2c-2.2,0-3.9-1.8-3.9-3.9c0-2.2,1.8-3.9,3.9-3.9h17.2c2.2,0,3.9,1.8,3.9,3.9
					C155.5,110,153.7,111.8,151.6,111.8z"/>
			</g>
		</g>
	</g>
	<g>
		<g>
			<path class="st1" d="M80.1,244.7c2.9,0,4.7,1.7,6,3.9l7.4-5.3c-2.5-5.3-7.7-8-14.3-8c-11.6,0-16.1,8.4-16.1,17.9
				c0,9.5,4.5,17.9,16.1,17.9c6.5,0,11.8-2.6,14.3-8l-7.3-5.3c-1.3,2.2-3.2,4-6.1,4c-4.5,0-6.2-3.7-6.2-8.6
				C73.9,248.3,75.6,244.7,80.1,244.7z"/>
			<path class="st1" d="M111.3,235.4c-8.7,0-14.4,3.9-14.4,9.8c0,0.6,0.1,1.6,0.1,2.3h9.2v-1.1c0-1.5,1.4-2.8,4.4-2.8
				c3.8,0,4.7,1.7,4.7,4v1.6l-2.8,0.1c-10.4,0.6-17,4-17,11.7c0,6.2,4.1,10.1,10,10.1c5,0,8.3-2,10.6-4.7v3.8h9.9v-22.7
				C125.9,238.8,119.8,235.4,111.3,235.4z M115.3,261c-1.5,1.4-3.6,2.3-5.6,2.3c-2,0-3.5-0.9-3.5-2.9c0-2.4,2-3.9,6.2-4.5l2.8-0.4
				V261z"/>
			<path class="st1" d="M142,241.9L142,241.9l-0.1-5.3h-10.2v34.2h10.7v-21.1c1.1-1.8,3.3-2.9,5.7-2.9c1.8,0,4.3,0.3,5.9,0.8
				l0.7-11.3c-1.1-0.3-2.4-0.5-3.8-0.5C146.2,235.8,143.6,238.9,142,241.9z"/>
			<path class="st1" d="M172,235.4c-8.7,0-14.4,3.9-14.4,9.8c0,0.6,0.1,1.6,0.1,2.3h9.2v-1.1c0-1.5,1.4-2.8,4.4-2.8
				c3.8,0,4.7,1.7,4.7,4v1.6l-2.8,0.1c-10.4,0.6-17,4-17,11.7c0,6.2,4.1,10.1,10,10.1c5,0,8.3-2,10.6-4.7v3.8h9.9v-22.7
				C186.6,238.8,180.5,235.4,172,235.4z M176,261c-1.5,1.4-3.6,2.3-5.6,2.3c-2,0-3.5-0.9-3.5-2.9c0-2.4,2-3.9,6.2-4.5l2.8-0.4V261z"
				/>
			<polygon class="st1" points="207.2,260 199.9,236.1 188.5,236.1 200.8,270.4 213.7,270.4 225.8,236.1 214.4,236.1 			"/>
			<path class="st1" d="M242,235.4c-8.7,0-14.4,3.9-14.4,9.8c0,0.6,0.1,1.6,0.1,2.3h9.2v-1.1c0-1.5,1.4-2.8,4.4-2.8
				c3.8,0,4.7,1.7,4.7,4v1.6l-2.8,0.1c-10.4,0.6-17,4-17,11.7c0,6.2,4.1,10.1,10,10.1c5,0,8.3-2,10.6-4.7v3.8h9.9v-22.7
				C256.6,238.8,250.4,235.4,242,235.4z M245.9,261c-1.5,1.4-3.6,2.3-5.6,2.3c-2,0-3.5-0.9-3.5-2.9c0-2.4,2-3.9,6.2-4.5l2.8-0.4V261
				z"/>
			<path class="st1" d="M282.9,235.8c-5.6,0-8.6,2.1-10.2,4.6v-3.8h-10.3v34.2H273v-23.4c1.1-0.8,3.5-1.8,5.3-1.8
				c3.9,0,5.4,1.8,5.4,5.3v19.9h10.7v-21.2C294.4,240.6,290.2,235.8,282.9,235.8z"/>
		</g>
		<g>
			<path class="st1" d="M59.8,194.4c6.5,0,11.8,2.6,14.3,8l-7.4,5.3c-1.3-2.2-3.1-3.9-6-3.9c-4.5,0-6.2,3.6-6.2,8.6
				c0,5,1.7,8.6,6.2,8.6c2.9,0,4.8-1.8,6.1-4l7.3,5.3c-2.5,5.3-7.7,8-14.3,8c-11.6,0-16.1-8.5-16.1-17.9
				C43.6,202.8,48.1,194.4,59.8,194.4z"/>
			<path class="st1" d="M109.3,212.2c0,10.5-5.3,18-16.7,18c-10.8,0-16.3-7.7-16.3-17.8c0-10.6,5.2-18,16.7-18
				C103.9,194.4,109.3,201.8,109.3,212.2z M98.5,212.4c0-5.9-2-8.5-5.9-8.5c-3.7,0-5.6,2.6-5.6,8.3c0,6,2,8.5,5.7,8.5
				C96.6,220.6,98.5,217.9,98.5,212.4z"/>
			<path class="st1" d="M135.5,177.5h10.7v51.8H136v-2.6c-2.1,2-5.3,3.4-9.2,3.4c-8.7,0-14-6.4-14-18c0-11.3,5.1-17.8,14-17.8
				c4.1,0,7.1,1.7,8.6,2.9V177.5z M130,220.4c2.5,0,4.2-0.7,5.4-1.4v-13.5c-1.2-0.7-2.9-1.4-5.4-1.4c-4.8,0-6.4,3.4-6.4,8
				C123.7,216.8,125.2,220.4,130,220.4z"/>
			<path class="st1" d="M176.3,218.3l4.9,6.8c-2.9,2.7-7.3,5-12.8,5c-12.2,0-17.5-7.5-17.5-17.9c0-9.5,5.6-17.9,16.3-17.9
				c11,0,14.9,7.7,14.9,15.1c0,2-0.2,4.8-0.6,6.2h-19.8c0.2,3.5,2.6,5.6,6.8,5.6C171,221.2,173.7,220.2,176.3,218.3z M172.2,208.2
				c0.1-0.5,0.1-0.8,0.1-0.9c0-3.5-2.7-4.6-5.1-4.6c-3.6,0-5.3,2.5-5.6,5.5H172.2z"/>
		</g>
	</g>
</g>
</svg>
