<?xml version="1.0" encoding="utf-8"?>
<!-- Generator: Adobe Illustrator 23.0.2, SVG Export Plug-In . SVG Version: 6.00 Build 0)  -->
<svg version="1.1" id="Layer_1" xmlns="http://www.w3.org/2000/svg" xmlns:xlink="http://www.w3.org/1999/xlink" x="0px" y="0px"
	 viewBox="0 0 512 512" style="enable-background:new 0 0 512 512;" xml:space="preserve">
<style type="text/css">
	.st0{fill:#D7FDEC;}
</style>
<path class="st0" d="M54.9,432.3c-4.1,0-7.5,3.4-7.5,7.5c0,4.1,3.4,7.5,7.5,7.5h47.8c4.1,0,7.5-3.4,7.5-7.5c0-4.1-3.4-7.5-7.5-7.5
	H54.9z"/>
<path class="st0" d="M275.6,447.3H456c4.1,0,7.5-3.4,7.5-7.5c0-4.1-3.4-7.5-7.5-7.5H275.6c-4.1,0-7.5,3.4-7.5,7.5
	C268.1,443.9,271.5,447.3,275.6,447.3z"/>
<path class="st0" d="M223.2,287.4c-2.5-3.3-7.2-3.9-10.5-1.4l-61.9,47.7c-0.5,0.4-0.9,0.8-1.2,1.2c0,0.1-0.1,0.1-0.1,0.2
	c-0.2,0.2-0.3,0.4-0.5,0.7c0,0-0.1,0.1-0.1,0.1c-0.2,0.3-0.3,0.6-0.4,0.8c0,0.1,0,0.1-0.1,0.2c-0.1,0.2-0.2,0.5-0.2,0.8
	c0,0,0,0.1,0,0.1l-12.9,49.8v0l-1.9,7.3l-9.6,37.2c-0.9,3.5-0.2,7.2,2.1,10.1c2.2,2.9,5.6,4.5,9.2,4.6l97.5,0.4h0
	c0.4,0,0.8,0,1.1-0.1c0.1,0,0.2-0.1,0.4-0.1c0.3-0.1,0.5-0.1,0.8-0.2c0.1,0,0.3-0.1,0.4-0.1c0.2-0.1,0.4-0.2,0.7-0.3
	c0.1-0.1,0.3-0.1,0.4-0.2c0.2-0.1,0.4-0.3,0.6-0.4c0.1-0.1,0.2-0.1,0.2-0.1L395,324c2.8,2.1,6.2,3.2,9.7,3.2c3.4,0,6.8-1.1,9.7-3.3
	l24.8-19.1c7-5.4,8.3-15.4,2.9-22.4l-3.7-4.8l9.7-7.5c17.4-13.4,20.6-38.4,7.2-55.7L430,181.7c-13.4-17.4-38.4-20.6-55.7-7.2
	l-9.7,7.5l-3.7-4.8c-2.6-3.4-6.4-5.5-10.6-6.1c-4.2-0.5-8.4,0.6-11.8,3.2l-24.7,19.1c-5.8,4.5-7.7,12.2-5,18.8l-59.3,45.7
	c-3.3,2.5-3.9,7.2-1.4,10.5c2.5,3.3,7.2,3.9,10.5,1.4l58.8-45.3l7.3,9.5L173.2,350.6l-7.3-9.5l56-43.2
	C225.1,295.4,225.7,290.7,223.2,287.4z M139.2,431.9l6.6-25.7l19.9,25.7L139.2,431.9z M363.7,284.3l0.2,0.3l5,6.5L217.4,407.9
	l-5.2-6.8L363.7,284.3z M203,389.2l-6.3-8.1l151.5-116.8l6.3,8.1L203,389.2z M233.8,429.3l-7.3-9.5L378.1,303l7.3,9.5L233.8,429.3z
	 M383.4,186.3c10.8-8.3,26.4-6.3,34.7,4.5l25.2,32.7c8.3,10.8,6.3,26.4-4.5,34.7l-9.7,7.5l-55.4-71.9L383.4,186.3z M322.7,206.6
	c-0.3-0.4-0.3-1.1,0.2-1.4l24.8-19.1c0.2-0.2,0.5-0.2,0.7-0.2s0.5,0.2,0.7,0.4l81.2,105.3c0.3,0.4,0.2,1.1-0.2,1.4L405.2,312
	c-0.4,0.3-1.1,0.2-1.4-0.2l-2-2.6l-0.3-0.3l-16.2-21c0,0,0,0,0,0L371,269.2L322.7,206.6z M333.8,245.6l1.7,2.2l3.5,4.6L187.6,369.2
	l-5.2-6.8L333.8,245.6z M195.7,404.3l14.4,18.7h0l7.1,9.2l-32.5-0.1l-34.1-44.2l8.1-31.4L195.7,404.3z"/>
<path class="st0" d="M54.8,28.8c-12.1,0-22,9.9-22,22c0,12.1,9.9,22,22,22c12.1,0,22-9.9,22-22C76.8,38.7,66.9,28.8,54.8,28.8z
	 M54.8,57.8c-3.9,0-7-3.1-7-7c0-3.9,3.1-7,7-7c3.9,0,7,3.1,7,7C61.8,54.7,58.6,57.8,54.8,57.8z"/>
<path class="st0" d="M110.8,28.8c-12.1,0-22,9.9-22,22c0,12.1,9.9,22,22,22c12.1,0,22-9.9,22-22C132.8,38.7,123,28.8,110.8,28.8z
	 M110.8,57.8c-3.9,0-7-3.1-7-7c0-3.9,3.1-7,7-7c3.9,0,7,3.1,7,7C117.8,54.7,114.7,57.8,110.8,57.8z"/>
<path class="st0" d="M166.9,28.8c-12.1,0-22,9.9-22,22c0,12.1,9.9,22,22,22c12.1,0,22-9.9,22-22C188.9,38.7,179,28.8,166.9,28.8z
	 M166.9,57.8c-3.9,0-7-3.1-7-7c0-3.9,3.1-7,7-7c3.9,0,7,3.1,7,7C173.9,54.7,170.7,57.8,166.9,57.8z"/>
<path class="st0" d="M504.5,144.5c4.1,0,7.5-3.4,7.5-7.5V33c0-18.2-14.8-33-33-33H33C14.8,0,0,14.8,0,33v446c0,18.2,14.8,33,33,33
	h446c18.2,0,33-14.8,33-33V184c0-4.1-3.4-7.5-7.5-7.5s-7.5,3.4-7.5,7.5v295c0,9.9-8.1,18-18,18H33c-9.9,0-18-8.1-18-18V102h482v35
	C497,141.2,500.4,144.5,504.5,144.5z M15,87V33c0-9.9,8.1-18,18-18h446c9.9,0,18,8.1,18,18v54H15z"/>
</svg>
