<?xml version="1.0" encoding="utf-8"?>
<!-- Generator: Adobe Illustrator 23.0.2, SVG Export Plug-In . SVG Version: 6.00 Build 0)  -->
<svg version="1.1" id="Layer_1" xmlns="http://www.w3.org/2000/svg" xmlns:xlink="http://www.w3.org/1999/xlink" x="0px" y="0px"
	 viewBox="0 0 512 512" style="enable-background:new 0 0 512 512;" xml:space="preserve">
<style type="text/css">
	.st0{fill:#D7FDEC;}
</style>
<path class="st0" d="M235.5,32.8h-20.6c-4.1,0-7.5,3.4-7.5,7.5c0,4.1,3.4,7.5,7.5,7.5h20.6c4.1,0,7.5-3.4,7.5-7.5
	C243,36.2,239.6,32.8,235.5,32.8z"/>
<path class="st0" d="M297.1,32.8h-38c-4.1,0-7.5,3.4-7.5,7.5c0,4.1,3.4,7.5,7.5,7.5h38c4.1,0,7.5-3.4,7.5-7.5
	C304.6,36.2,301.3,32.8,297.1,32.8z"/>
<path class="st0" d="M141.3,124.6h56.6c4.1,0,7.5-3.4,7.5-7.5c0-4.1-3.4-7.5-7.5-7.5h-56.6c-9.8,0-17.7,7.9-17.7,17.7v86.4
	c0,9.8,7.9,17.7,17.7,17.7h229.5c9.8,0,17.7-7.9,17.7-17.7v-86.4c0-9.8-7.9-17.7-17.7-17.7H243.4c-4.1,0-7.5,3.4-7.5,7.5
	c0,4.1,3.4,7.5,7.5,7.5h127.3c1.5,0,2.7,1.2,2.7,2.7v86.4c0,1.5-1.2,2.7-2.7,2.7h-10l-48.1-54.2c-2.3-2.6-5.6-4.1-9-4.2
	c-3.4-0.1-6.8,1.2-9.2,3.7l-23.2,23.2l-32.7-36.8c-2.3-2.6-5.6-4.1-9-4.2c-3.4-0.1-6.8,1.2-9.2,3.7l-68.9,68.9h-10.2
	c-1.5,0-2.7-1.2-2.7-2.7v-86.4C138.6,125.8,139.8,124.6,141.3,124.6z M229.1,160l40.7,45.9c2.8,3.1,7.5,3.4,10.6,0.6
	c3-2.7,3.4-7.3,0.8-10.4l22-22l37.5,42.3h-168L229.1,160z"/>
<path class="st0" d="M384.4,0H127.6C108,0,92,16,92,35.6v286.1c0,4.1,3.4,7.5,7.5,7.5s7.5-3.4,7.5-7.5V85h298V427H107v-57.2
	c0-4.1-3.4-7.5-7.5-7.5s-7.5,3.4-7.5,7.5v106.5c0,19.6,16,35.6,35.6,35.6h256.8c19.6,0,35.6-16,35.6-35.6V35.6C420,16,404,0,384.4,0
	z M405,476.4c0,11.4-9.3,20.6-20.6,20.6H127.6c-11.4,0-20.6-9.3-20.6-20.6V442h298V476.4z M405,70H107V35.6
	c0-11.4,9.3-20.6,20.6-20.6h256.8c11.4,0,20.6,9.3,20.6,20.6V70z"/>
<path class="st0" d="M233.9,478.1h44.1c4.1,0,7.5-3.4,7.5-7.5c0-4.1-3.4-7.5-7.5-7.5h-44.1c-4.1,0-7.5,3.4-7.5,7.5
	C226.4,474.8,229.8,478.1,233.9,478.1z"/>
<path class="st0" d="M207,254.5h-66.3c-4.1,0-7.5,3.4-7.5,7.5c0,4.1,3.4,7.5,7.5,7.5H207c4.1,0,7.5-3.4,7.5-7.5
	C214.5,257.9,211.1,254.5,207,254.5z"/>
<path class="st0" d="M273.3,269.5c4.1,0,7.5-3.4,7.5-7.5c0-4.1-3.4-7.5-7.5-7.5h-25.7c-4.1,0-7.5,3.4-7.5,7.5c0,4.1,3.4,7.5,7.5,7.5
	H273.3z"/>
<path class="st0" d="M371.4,254.5h-60.6c-4.1,0-7.5,3.4-7.5,7.5c0,4.1,3.4,7.5,7.5,7.5h60.6c4.1,0,7.5-3.4,7.5-7.5
	C378.9,257.9,375.5,254.5,371.4,254.5z"/>
<path class="st0" d="M140.7,312.1H183c4.1,0,7.5-3.4,7.5-7.5c0-4.1-3.4-7.5-7.5-7.5h-42.3c-4.1,0-7.5,3.4-7.5,7.5
	C133.2,308.8,136.5,312.1,140.7,312.1z"/>
<path class="st0" d="M205,304.6c0,4.1,3.4,7.5,7.5,7.5h76.7c4.1,0,7.5-3.4,7.5-7.5c0-4.1-3.4-7.5-7.5-7.5h-76.7
	C208.4,297.1,205,300.5,205,304.6z"/>
<path class="st0" d="M371.4,297.1h-46.7c-4.1,0-7.5,3.4-7.5,7.5c0,4.1,3.4,7.5,7.5,7.5h46.7c4.1,0,7.5-3.4,7.5-7.5
	C378.9,300.5,375.5,297.1,371.4,297.1z"/>
<path class="st0" d="M140.7,351.3h53.6c4.1,0,7.5-3.4,7.5-7.5c0-4.1-3.4-7.5-7.5-7.5h-53.6c-4.1,0-7.5,3.4-7.5,7.5
	C133.2,347.9,136.5,351.3,140.7,351.3z"/>
<path class="st0" d="M326.8,343.8c0-4.1-3.4-7.5-7.5-7.5h-90.8c-4.1,0-7.5,3.4-7.5,7.5c0,4.1,3.4,7.5,7.5,7.5h90.8
	C323.4,351.3,326.8,347.9,326.8,343.8z"/>
<path class="st0" d="M371.4,336.3h-20.8c-4.1,0-7.5,3.4-7.5,7.5c0,4.1,3.4,7.5,7.5,7.5h20.8c4.1,0,7.5-3.4,7.5-7.5
	C378.9,339.7,375.5,336.3,371.4,336.3z"/>
<path class="st0" d="M140.7,393.9h92.3c4.1,0,7.5-3.4,7.5-7.5c0-4.1-3.4-7.5-7.5-7.5h-92.3c-4.1,0-7.5,3.4-7.5,7.5
	C133.2,390.5,136.5,393.9,140.7,393.9z"/>
<path class="st0" d="M264.2,378.9c-4.1,0-7.5,3.4-7.5,7.5c0,4.1,3.4,7.5,7.5,7.5h40.2c4.1,0,7.5-3.4,7.5-7.5c0-4.1-3.4-7.5-7.5-7.5
	H264.2z"/>
<path class="st0" d="M332.7,393.9h38.7c4.1,0,7.5-3.4,7.5-7.5c0-4.1-3.4-7.5-7.5-7.5h-38.7c-4.1,0-7.5,3.4-7.5,7.5
	C325.2,390.5,328.5,393.9,332.7,393.9z"/>
</svg>
